<mxfile host="app.diagrams.net" agent="Mozilla/5.0 (Windows NT 10.0; Win64; x64) AppleWebKit/537.36 (KHTML, like Gecko) Chrome/133.0.0.0 Safari/537.36" version="24.9.1">
  <diagram name="Page-1" id="e7e014a7-5840-1c2e-5031-d8a46d1fe8dd">
    <mxGraphModel dx="1600" dy="609" grid="1" gridSize="10" guides="1" tooltips="1" connect="1" arrows="1" fold="1" page="1" pageScale="1" pageWidth="1169" pageHeight="826" background="none" math="0" shadow="0">
      <root>
        <mxCell id="0" />
        <mxCell id="1" parent="0" />
        <mxCell id="2" value="Feirante" style="swimlane;whiteSpace=wrap;startSize=23;" parent="1" vertex="1">
          <mxGeometry x="140" y="128" width="304.5" height="1062" as="geometry" />
        </mxCell>
        <mxCell id="5" value="" style="ellipse;shape=startState;fillColor=#000000;strokeColor=#ff0000;" parent="2" vertex="1">
          <mxGeometry x="152.5" y="32" width="30" height="30" as="geometry" />
        </mxCell>
        <mxCell id="6" value="" style="edgeStyle=elbowEdgeStyle;elbow=horizontal;verticalAlign=bottom;endArrow=open;endSize=8;strokeColor=#FF0000;endFill=1;rounded=0;entryX=0.5;entryY=0;entryDx=0;entryDy=0;" parent="2" source="5" target="IwVhBGJNTUL73PMueiOk-85" edge="1">
          <mxGeometry x="100" y="40" as="geometry">
            <mxPoint x="115" y="100" as="targetPoint" />
          </mxGeometry>
        </mxCell>
        <mxCell id="IwVhBGJNTUL73PMueiOk-50" value="Inicio" style="text;html=1;align=center;verticalAlign=middle;resizable=0;points=[];autosize=1;strokeColor=none;fillColor=none;fontSize=16;" vertex="1" parent="2">
          <mxGeometry x="182.5" y="32" width="60" height="30" as="geometry" />
        </mxCell>
        <mxCell id="IwVhBGJNTUL73PMueiOk-66" value="" style="ellipse;html=1;shape=endState;fillColor=#000000;strokeColor=#ff0000;" vertex="1" parent="2">
          <mxGeometry x="152.5" y="702" width="30" height="30" as="geometry" />
        </mxCell>
        <mxCell id="IwVhBGJNTUL73PMueiOk-85" value="&lt;span style=&quot;text-wrap-mode: nowrap;&quot;&gt;Feirante acessa o sistema&lt;/span&gt;" style="rounded=1;whiteSpace=wrap;html=1;arcSize=40;fontColor=#000000;fillColor=#ffffc0;strokeColor=#ff0000;" vertex="1" parent="2">
          <mxGeometry x="85" y="92" width="165" height="40" as="geometry" />
        </mxCell>
        <mxCell id="IwVhBGJNTUL73PMueiOk-107" value="Exibe comprovante da venda" style="rounded=1;whiteSpace=wrap;html=1;arcSize=40;fontColor=#000000;fillColor=#ffffc0;strokeColor=#ff0000;" vertex="1" parent="2">
          <mxGeometry x="107.5" y="562" width="120" height="40" as="geometry" />
        </mxCell>
        <mxCell id="IwVhBGJNTUL73PMueiOk-117" value="" style="edgeStyle=orthogonalEdgeStyle;html=1;verticalAlign=bottom;endArrow=open;endSize=8;strokeColor=#ff0000;rounded=0;entryX=0.5;entryY=0;entryDx=0;entryDy=0;exitX=0.5;exitY=1;exitDx=0;exitDy=0;" edge="1" parent="2" source="IwVhBGJNTUL73PMueiOk-107" target="IwVhBGJNTUL73PMueiOk-66">
          <mxGeometry relative="1" as="geometry">
            <mxPoint x="484.5" y="602" as="targetPoint" />
            <mxPoint x="484.5" y="532" as="sourcePoint" />
          </mxGeometry>
        </mxCell>
        <mxCell id="IwVhBGJNTUL73PMueiOk-118" value="Fim" style="text;html=1;align=center;verticalAlign=middle;resizable=0;points=[];autosize=1;strokeColor=none;fillColor=none;" vertex="1" parent="2">
          <mxGeometry x="192.5" y="710" width="40" height="30" as="geometry" />
        </mxCell>
        <mxCell id="3" value="Sistema" style="swimlane;whiteSpace=wrap" parent="1" vertex="1">
          <mxGeometry x="444.5" y="128" width="300" height="1062" as="geometry" />
        </mxCell>
        <mxCell id="14" value="" style="edgeStyle=elbowEdgeStyle;elbow=horizontal;verticalAlign=bottom;endArrow=open;endSize=8;strokeColor=#FF0000;endFill=1;rounded=0" parent="3" target="15" edge="1">
          <mxGeometry x="40" y="20" as="geometry">
            <mxPoint x="55" y="90" as="targetPoint" />
            <mxPoint x="75" y="70" as="sourcePoint" />
          </mxGeometry>
        </mxCell>
        <mxCell id="17" value="" style="endArrow=open;strokeColor=#FF0000;endFill=1;rounded=0" parent="3" target="16" edge="1">
          <mxGeometry relative="1" as="geometry">
            <mxPoint x="75" y="160" as="sourcePoint" />
          </mxGeometry>
        </mxCell>
        <mxCell id="19" value="" style="endArrow=open;strokeColor=#FF0000;endFill=1;rounded=0" parent="3" target="18" edge="1">
          <mxGeometry relative="1" as="geometry">
            <mxPoint x="75" y="270" as="sourcePoint" />
          </mxGeometry>
        </mxCell>
        <mxCell id="23" value="no" style="edgeStyle=elbowEdgeStyle;elbow=horizontal;align=left;verticalAlign=top;endArrow=open;endSize=8;strokeColor=#FF0000;endFill=1;rounded=0" parent="3" source="21" edge="1">
          <mxGeometry x="-1" relative="1" as="geometry">
            <mxPoint x="190.5" y="325" as="targetPoint" />
          </mxGeometry>
        </mxCell>
        <mxCell id="24" value="" style="endArrow=open;strokeColor=#FF0000;endFill=1;rounded=0" parent="3" target="21" edge="1">
          <mxGeometry relative="1" as="geometry">
            <mxPoint x="130" y="245" as="sourcePoint" />
          </mxGeometry>
        </mxCell>
        <mxCell id="11" value="" style="endArrow=open;strokeColor=#FF0000;endFill=1;rounded=0;exitX=0.5;exitY=1;exitDx=0;exitDy=0;entryX=0.5;entryY=0;entryDx=0;entryDy=0;" parent="3" source="IwVhBGJNTUL73PMueiOk-88" target="IwVhBGJNTUL73PMueiOk-92" edge="1">
          <mxGeometry relative="1" as="geometry">
            <mxPoint x="150" y="170" as="sourcePoint" />
            <mxPoint x="150" y="250" as="targetPoint" />
          </mxGeometry>
        </mxCell>
        <mxCell id="IwVhBGJNTUL73PMueiOk-68" value="Via máquininha Stone" style="rhombus;whiteSpace=wrap;html=1;fontColor=#000000;fillColor=#ffffc0;strokeColor=#ff0000;" vertex="1" parent="3">
          <mxGeometry x="110" y="285" width="80" height="62" as="geometry" />
        </mxCell>
        <mxCell id="IwVhBGJNTUL73PMueiOk-70" value="Não" style="edgeStyle=orthogonalEdgeStyle;html=1;align=left;verticalAlign=top;endArrow=open;endSize=8;strokeColor=#ff0000;rounded=0;fontSize=12;curved=1;entryX=0.5;entryY=0;entryDx=0;entryDy=0;" edge="1" source="IwVhBGJNTUL73PMueiOk-68" parent="3" target="IwVhBGJNTUL73PMueiOk-102">
          <mxGeometry x="-1" relative="1" as="geometry">
            <mxPoint x="150" y="482" as="targetPoint" />
          </mxGeometry>
        </mxCell>
        <mxCell id="IwVhBGJNTUL73PMueiOk-45" value="" style="endArrow=open;strokeColor=#FF0000;endFill=1;rounded=0;entryX=0.5;entryY=0;entryDx=0;entryDy=0;exitX=0.5;exitY=1;exitDx=0;exitDy=0;" edge="1" parent="3" source="IwVhBGJNTUL73PMueiOk-92" target="IwVhBGJNTUL73PMueiOk-68">
          <mxGeometry relative="1" as="geometry">
            <mxPoint x="150" y="320" as="sourcePoint" />
            <mxPoint x="132.75499999999988" y="382" as="targetPoint" />
          </mxGeometry>
        </mxCell>
        <mxCell id="IwVhBGJNTUL73PMueiOk-88" value="&lt;span style=&quot;text-wrap-mode: nowrap;&quot;&gt;Seleciona os produtos e quantidades&lt;/span&gt;" style="rounded=1;whiteSpace=wrap;html=1;arcSize=40;fontColor=#000000;fillColor=#ffffc0;strokeColor=#ff0000;" vertex="1" parent="3">
          <mxGeometry x="43.75" y="92" width="212.5" height="40" as="geometry" />
        </mxCell>
        <mxCell id="IwVhBGJNTUL73PMueiOk-92" value="&lt;span style=&quot;text-wrap-mode: nowrap;&quot;&gt;Escolhe a forma de pagamento&lt;/span&gt;" style="rounded=1;whiteSpace=wrap;html=1;arcSize=40;fontColor=#000000;fillColor=#ffffc0;strokeColor=#ff0000;" vertex="1" parent="3">
          <mxGeometry x="43.75" y="192" width="212.5" height="40" as="geometry" />
        </mxCell>
        <mxCell id="IwVhBGJNTUL73PMueiOk-102" value="Registra a venda no sistema" style="rounded=1;whiteSpace=wrap;html=1;arcSize=40;fontColor=#000000;fillColor=#ffffc0;strokeColor=#ff0000;" vertex="1" parent="3">
          <mxGeometry x="90" y="492" width="120" height="40" as="geometry" />
        </mxCell>
        <mxCell id="IwVhBGJNTUL73PMueiOk-103" value="" style="edgeStyle=orthogonalEdgeStyle;html=1;verticalAlign=bottom;endArrow=open;endSize=8;strokeColor=#ff0000;rounded=0;entryX=0.5;entryY=0;entryDx=0;entryDy=0;" edge="1" source="IwVhBGJNTUL73PMueiOk-102" parent="3" target="IwVhBGJNTUL73PMueiOk-104">
          <mxGeometry relative="1" as="geometry">
            <mxPoint x="155.5" y="592" as="targetPoint" />
          </mxGeometry>
        </mxCell>
        <mxCell id="IwVhBGJNTUL73PMueiOk-104" value="Atualiza o estoque" style="rounded=1;whiteSpace=wrap;html=1;arcSize=40;fontColor=#000000;fillColor=#ffffc0;strokeColor=#ff0000;" vertex="1" parent="3">
          <mxGeometry x="90" y="632" width="120" height="40" as="geometry" />
        </mxCell>
        <mxCell id="IwVhBGJNTUL73PMueiOk-109" value="" style="shape=line;html=1;strokeWidth=6;strokeColor=#ff0000;rotation=90;" vertex="1" parent="3">
          <mxGeometry x="-90" y="582" width="200" height="10" as="geometry" />
        </mxCell>
        <mxCell id="IwVhBGJNTUL73PMueiOk-113" value="" style="edgeStyle=orthogonalEdgeStyle;html=1;verticalAlign=bottom;endArrow=open;endSize=8;strokeColor=#ff0000;rounded=0;entryX=0.484;entryY=0.357;entryDx=0;entryDy=0;entryPerimeter=0;exitX=0;exitY=0.5;exitDx=0;exitDy=0;" edge="1" parent="3" source="IwVhBGJNTUL73PMueiOk-102" target="IwVhBGJNTUL73PMueiOk-109">
          <mxGeometry relative="1" as="geometry">
            <mxPoint x="160" y="632" as="targetPoint" />
            <mxPoint x="160" y="547" as="sourcePoint" />
          </mxGeometry>
        </mxCell>
        <mxCell id="IwVhBGJNTUL73PMueiOk-116" value="" style="edgeStyle=orthogonalEdgeStyle;html=1;verticalAlign=bottom;endArrow=open;endSize=8;strokeColor=#ff0000;rounded=0;exitX=0;exitY=0.5;exitDx=0;exitDy=0;entryX=0.481;entryY=0.35;entryDx=0;entryDy=0;entryPerimeter=0;" edge="1" parent="3" source="IwVhBGJNTUL73PMueiOk-104" target="IwVhBGJNTUL73PMueiOk-109">
          <mxGeometry relative="1" as="geometry">
            <mxPoint x="45.5" y="592" as="targetPoint" />
            <mxPoint x="170" y="522" as="sourcePoint" />
          </mxGeometry>
        </mxCell>
        <mxCell id="4" value="Stone" style="swimlane;whiteSpace=wrap;startSize=23;" parent="1" vertex="1">
          <mxGeometry x="744.5" y="128" width="415.5" height="1062" as="geometry">
            <mxRectangle x="744.5" y="128" width="70" height="30" as="alternateBounds" />
          </mxGeometry>
        </mxCell>
        <mxCell id="IwVhBGJNTUL73PMueiOk-71" value="Aprovado?" style="rhombus;whiteSpace=wrap;html=1;fontColor=#000000;fillColor=#ffffc0;strokeColor=#ff0000;" vertex="1" parent="4">
          <mxGeometry x="170" y="492" width="80" height="40" as="geometry" />
        </mxCell>
        <mxCell id="IwVhBGJNTUL73PMueiOk-73" value="Não" style="edgeStyle=orthogonalEdgeStyle;html=1;align=left;verticalAlign=top;endArrow=open;endSize=8;strokeColor=#ff0000;rounded=0;fontSize=12;curved=1;entryX=0.5;entryY=0;entryDx=0;entryDy=0;" edge="1" source="IwVhBGJNTUL73PMueiOk-71" parent="4">
          <mxGeometry x="-1" relative="1" as="geometry">
            <mxPoint x="210" y="632" as="targetPoint" />
          </mxGeometry>
        </mxCell>
        <mxCell id="IwVhBGJNTUL73PMueiOk-94" value="&lt;span style=&quot;text-wrap-mode: nowrap;&quot;&gt;Sistema envia solicitação para a Stone&lt;/span&gt;" style="rounded=1;whiteSpace=wrap;html=1;arcSize=40;fontColor=#000000;fillColor=#ffffc0;strokeColor=#ff0000;" vertex="1" parent="4">
          <mxGeometry x="87.75" y="296" width="244.5" height="40" as="geometry" />
        </mxCell>
        <mxCell id="IwVhBGJNTUL73PMueiOk-95" value="" style="edgeStyle=orthogonalEdgeStyle;html=1;verticalAlign=bottom;endArrow=open;endSize=8;strokeColor=#ff0000;rounded=0;entryX=0.5;entryY=0;entryDx=0;entryDy=0;" edge="1" source="IwVhBGJNTUL73PMueiOk-94" parent="4" target="IwVhBGJNTUL73PMueiOk-96">
          <mxGeometry relative="1" as="geometry">
            <mxPoint x="155.5" y="502" as="targetPoint" />
          </mxGeometry>
        </mxCell>
        <mxCell id="IwVhBGJNTUL73PMueiOk-96" value="Aguarda resposta da maquininha" style="rounded=1;whiteSpace=wrap;html=1;arcSize=40;fontColor=#000000;fillColor=#ffffc0;strokeColor=#ff0000;" vertex="1" parent="4">
          <mxGeometry x="87.75" y="402" width="244.5" height="40" as="geometry" />
        </mxCell>
        <mxCell id="IwVhBGJNTUL73PMueiOk-99" value="" style="edgeStyle=orthogonalEdgeStyle;html=1;verticalAlign=bottom;endArrow=open;endSize=8;strokeColor=#ff0000;rounded=0;entryX=0.5;entryY=0;entryDx=0;entryDy=0;exitX=0.5;exitY=1;exitDx=0;exitDy=0;" edge="1" parent="4" source="IwVhBGJNTUL73PMueiOk-96" target="IwVhBGJNTUL73PMueiOk-71">
          <mxGeometry relative="1" as="geometry">
            <mxPoint x="220" y="412" as="targetPoint" />
            <mxPoint x="220" y="346" as="sourcePoint" />
          </mxGeometry>
        </mxCell>
        <mxCell id="IwVhBGJNTUL73PMueiOk-100" value="&amp;nbsp;exibe erro e retorna à escolha de pagamento" style="rounded=1;whiteSpace=wrap;html=1;arcSize=40;fontColor=#000000;fillColor=#ffffc0;strokeColor=#ff0000;" vertex="1" parent="4">
          <mxGeometry x="83.88" y="632" width="252.25" height="40" as="geometry" />
        </mxCell>
        <mxCell id="IwVhBGJNTUL73PMueiOk-69" value="Sim" style="edgeStyle=orthogonalEdgeStyle;html=1;align=left;verticalAlign=bottom;endArrow=open;endSize=8;strokeColor=#ff0000;rounded=0;fontSize=12;curved=1;entryX=0;entryY=0.5;entryDx=0;entryDy=0;" edge="1" source="IwVhBGJNTUL73PMueiOk-68" parent="1" target="IwVhBGJNTUL73PMueiOk-94">
          <mxGeometry x="-1" relative="1" as="geometry">
            <mxPoint x="760" y="559" as="targetPoint" />
          </mxGeometry>
        </mxCell>
        <mxCell id="IwVhBGJNTUL73PMueiOk-91" value="" style="endArrow=open;strokeColor=#FF0000;endFill=1;rounded=0;exitX=1;exitY=0.5;exitDx=0;exitDy=0;entryX=0;entryY=0.5;entryDx=0;entryDy=0;" edge="1" parent="1" source="IwVhBGJNTUL73PMueiOk-85" target="IwVhBGJNTUL73PMueiOk-88">
          <mxGeometry relative="1" as="geometry">
            <mxPoint x="604.5" y="270" as="sourcePoint" />
            <mxPoint x="604.5" y="388" as="targetPoint" />
          </mxGeometry>
        </mxCell>
        <mxCell id="IwVhBGJNTUL73PMueiOk-101" value="" style="edgeStyle=orthogonalEdgeStyle;html=1;verticalAlign=bottom;endArrow=open;endSize=8;strokeColor=#ff0000;rounded=0;entryX=1;entryY=0.5;entryDx=0;entryDy=0;" edge="1" source="IwVhBGJNTUL73PMueiOk-100" parent="1" target="IwVhBGJNTUL73PMueiOk-92">
          <mxGeometry relative="1" as="geometry">
            <mxPoint x="952.25" y="860" as="targetPoint" />
            <Array as="points">
              <mxPoint x="1120" y="780" />
              <mxPoint x="1120" y="340" />
            </Array>
          </mxGeometry>
        </mxCell>
        <mxCell id="IwVhBGJNTUL73PMueiOk-110" value="" style="edgeStyle=orthogonalEdgeStyle;html=1;verticalAlign=bottom;endArrow=open;endSize=8;strokeColor=#ff0000;rounded=0;entryX=1;entryY=0.5;entryDx=0;entryDy=0;" edge="1" parent="1" target="IwVhBGJNTUL73PMueiOk-107">
          <mxGeometry relative="1" as="geometry">
            <mxPoint x="440" y="810" as="targetPoint" />
            <mxPoint x="450" y="710" as="sourcePoint" />
          </mxGeometry>
        </mxCell>
        <mxCell id="IwVhBGJNTUL73PMueiOk-115" value="" style="edgeStyle=orthogonalEdgeStyle;html=1;verticalAlign=bottom;endArrow=open;endSize=8;strokeColor=#ff0000;rounded=0;entryX=1;entryY=0.5;entryDx=0;entryDy=0;exitX=0;exitY=0.5;exitDx=0;exitDy=0;" edge="1" parent="1" source="IwVhBGJNTUL73PMueiOk-71" target="IwVhBGJNTUL73PMueiOk-102">
          <mxGeometry relative="1" as="geometry">
            <mxPoint x="604.5" y="710" as="targetPoint" />
            <mxPoint x="604.5" y="640" as="sourcePoint" />
          </mxGeometry>
        </mxCell>
      </root>
    </mxGraphModel>
  </diagram>
</mxfile>
